<svg width="46" height="27" viewBox="0 0 46 27" fill="none" xmlns="http://www.w3.org/2000/svg">
<path d="M17.3571 18.8035C17.3571 23.3303 13.4716 27 8.67857 27C3.88553 27 0 23.3303 0 18.8035C0 14.2768 3.88553 10.6071 8.67857 10.6071C13.4716 10.6071 17.3571 14.2768 17.3571 18.8035Z" fill="url(#paint0_linear)"/>
<path d="M28.9286 9.64286C28.9286 14.9685 24.6113 19.2857 19.2857 19.2857C13.9601 19.2857 9.64286 14.9685 9.64286 9.64286C9.64286 4.31725 13.9601 0 19.2857 0C24.6113 0 28.9286 4.31725 28.9286 9.64286Z" fill="url(#paint1_linear)"/>
<path d="M37.6071 13.0179C37.6071 16.4795 34.8009 19.2857 31.3393 19.2857C27.8776 19.2857 25.0714 16.4795 25.0714 13.0179C25.0714 9.55622 27.8776 6.75 31.3393 6.75C34.8009 6.75 37.6071 9.55622 37.6071 13.0179Z" fill="url(#paint2_linear)"/>
<path d="M45.3214 20.7322C45.3214 24.1938 42.2993 27 38.5714 27C34.8435 27 31.8214 24.1938 31.8214 20.7322C31.8214 17.2705 34.8435 14.4643 38.5714 14.4643C42.2993 14.4643 45.3214 17.2705 45.3214 20.7322Z" fill="url(#paint3_linear)"/>
<path d="M8.67857 15.4286H38.5714V27L8.67857 27V15.4286Z" fill="url(#paint4_linear)"/>
<defs>
<linearGradient id="paint0_linear" x1="22.6607" y1="0" x2="22.6607" y2="27" gradientUnits="userSpaceOnUse">
<stop stop-color="white"/>
<stop offset="0.494792" stop-color="#F9F9F9"/>
<stop offset="1" stop-color="#EBEBEB"/>
</linearGradient>
<linearGradient id="paint1_linear" x1="22.6607" y1="0" x2="22.6607" y2="27" gradientUnits="userSpaceOnUse">
<stop stop-color="white"/>
<stop offset="0.494792" stop-color="#F9F9F9"/>
<stop offset="1" stop-color="#EBEBEB"/>
</linearGradient>
<linearGradient id="paint2_linear" x1="22.6607" y1="0" x2="22.6607" y2="27" gradientUnits="userSpaceOnUse">
<stop stop-color="white"/>
<stop offset="0.494792" stop-color="#F9F9F9"/>
<stop offset="1" stop-color="#EBEBEB"/>
</linearGradient>
<linearGradient id="paint3_linear" x1="22.6607" y1="0" x2="22.6607" y2="27" gradientUnits="userSpaceOnUse">
<stop stop-color="white"/>
<stop offset="0.494792" stop-color="#F9F9F9"/>
<stop offset="1" stop-color="#EBEBEB"/>
</linearGradient>
<linearGradient id="paint4_linear" x1="22.6607" y1="0" x2="22.6607" y2="27" gradientUnits="userSpaceOnUse">
<stop stop-color="white"/>
<stop offset="0.494792" stop-color="#F9F9F9"/>
<stop offset="1" stop-color="#EBEBEB"/>
</linearGradient>
</defs>
</svg>
