<svg width="25" height="27" viewBox="0 0 25 27" fill="none" xmlns="http://www.w3.org/2000/svg">
<path d="M15.6869 14.4437C15.2086 14.1675 14.597 14.3314 14.3209 14.8097C14.0447 15.288 14.2086 15.8996 14.6869 16.1757L15.6869 14.4437ZM22.1848 20.5047C22.6631 20.7809 23.2747 20.617 23.5508 20.1387C23.827 19.6604 23.6631 19.0488 23.1848 18.7727L22.1848 20.5047ZM17.9612 15.6167C17.4277 15.7596 17.1111 16.3079 17.2541 16.8414C17.397 17.3749 17.9453 17.6915 18.4788 17.5485L17.9612 15.6167ZM23.3411 16.2457C23.8746 16.1028 24.1912 15.5545 24.0482 15.021C23.9053 14.4875 23.357 14.1709 22.8235 14.3139L23.3411 16.2457ZM18.4822 17.5426C18.3393 17.0091 17.7909 16.6925 17.2575 16.8355C16.724 16.9784 16.4074 17.5268 16.5504 18.0602L18.4822 17.5426ZM17.8533 22.9226C17.9962 23.4561 18.5446 23.7727 19.078 23.6297C19.6115 23.4868 19.9281 22.9384 19.7851 22.405L17.8533 22.9226ZM10.755 9.6579C10.755 10.2102 11.2027 10.6579 11.755 10.6579C12.3073 10.6579 12.755 10.2102 12.755 9.6579H10.755ZM12.755 1C12.755 0.447715 12.3073 0 11.755 0C11.2027 0 10.755 0.447715 10.755 1H12.755ZM10.6337 7.10185C11.0242 7.49237 11.6574 7.49237 12.0479 7.10185C12.4384 6.71132 12.4384 6.07816 12.0479 5.68763L10.6337 7.10185ZM8.48844 2.12816C8.09791 1.73764 7.46475 1.73764 7.07422 2.12816C6.6837 2.51869 6.6837 3.15185 7.07422 3.54238L8.48844 2.12816ZM12.0411 5.68764C11.6506 6.07817 11.6506 6.71133 12.0411 7.10185C12.4316 7.49237 13.0648 7.49237 13.4553 7.10184L12.0411 5.68764ZM17.0147 3.54237C17.4052 3.15184 17.4052 2.51868 17.0147 2.12816C16.6242 1.73764 15.991 1.73764 15.6005 2.12817L17.0147 3.54237ZM14.3976 10.2463C13.9193 10.5224 13.7554 11.134 14.0316 11.6123C14.3077 12.0906 14.9193 12.2545 15.3976 11.9783L14.3976 10.2463ZM22.8956 7.6494C23.3739 7.37326 23.5378 6.76167 23.2616 6.28337C22.9855 5.80508 22.3739 5.6412 21.8956 5.91734L22.8956 7.6494ZM16.5506 8.86319C16.4076 9.39666 16.7242 9.945 17.2577 10.0879C17.7911 10.2309 18.3395 9.91431 18.4824 9.38085L16.5506 8.86319ZM19.7853 4.51852C19.9283 3.98505 19.6117 3.43671 19.0782 3.29377C18.5448 3.15082 17.9964 3.4674 17.8535 4.00086L19.7853 4.51852ZM18.479 9.37497C17.9455 9.23204 17.3972 9.54862 17.2543 10.0821C17.1113 10.6156 17.4279 11.1639 17.9614 11.3068L18.479 9.37497ZM22.8237 12.6096C23.3572 12.7526 23.9055 12.436 24.0484 11.9025C24.1914 11.369 23.8748 10.8207 23.3413 10.6778L22.8237 12.6096ZM8.6849 11.9783C9.16319 12.2545 9.77478 12.0906 10.0509 11.6123C10.3271 11.134 10.1632 10.5224 9.6849 10.2463L8.6849 11.9783ZM2.18694 5.91732C1.70865 5.64118 1.09706 5.80506 0.820915 6.28335C0.544772 6.76164 0.708647 7.37323 1.18694 7.64938L2.18694 5.91732ZM5.60008 9.38082C5.74302 9.91428 6.29136 10.2309 6.82483 10.0879C7.35829 9.94499 7.67488 9.39665 7.53194 8.86318L5.60008 9.38082ZM6.22909 4.00085C6.08615 3.46739 5.53781 3.1508 5.00434 3.29374C4.47088 3.43668 4.15429 3.98502 4.29723 4.51849L6.22909 4.00085ZM6.12116 11.3067C6.65462 11.1638 6.9712 10.6154 6.82825 10.082C6.68531 9.54851 6.13697 9.23193 5.6035 9.37488L6.12116 11.3067ZM0.741173 10.6778C0.207708 10.8207 -0.10887 11.3691 0.0340763 11.9025C0.177022 12.436 0.725362 12.7526 1.25883 12.6096L0.741173 10.6778ZM9.39567 16.1757C9.87397 15.8996 10.0378 15.288 9.76169 14.8097C9.48555 14.3314 8.87396 14.1675 8.39567 14.4437L9.39567 16.1757ZM0.897706 18.7727C0.419414 19.0488 0.255542 19.6604 0.531687 20.1387C0.807832 20.617 1.41942 20.7809 1.89771 20.5047L0.897706 18.7727ZM5.60374 17.5485C6.13721 17.6915 6.68555 17.3749 6.82849 16.8414C6.97144 16.308 6.65486 15.7596 6.1214 15.6167L5.60374 17.5485ZM1.25908 14.3138C0.725612 14.1708 0.177273 14.4874 0.0343264 15.0209C-0.10862 15.5543 0.207958 16.1027 0.741423 16.2456L1.25908 14.3138ZM7.53219 18.0602C7.67513 17.5267 7.35854 16.9784 6.82508 16.8355C6.29161 16.6925 5.74327 17.0091 5.60033 17.5426L7.53219 18.0602ZM4.29747 22.405C4.15453 22.9384 4.47112 23.4868 5.00458 23.6297C5.53805 23.7727 6.08639 23.4561 6.22933 22.9226L4.29747 22.405ZM13.3343 17.3421C13.3343 16.7898 12.8866 16.3421 12.3343 16.3421C11.782 16.3421 11.3343 16.7898 11.3343 17.3421H13.3343ZM11.3343 26C11.3343 26.5523 11.782 27 12.3343 27C12.8866 27 13.3343 26.5523 13.3343 26H11.3343ZM13.4556 19.8981C13.0651 19.5076 12.4319 19.5076 12.0414 19.8981C11.6509 20.2886 11.6509 20.9218 12.0414 21.3123L13.4556 19.8981ZM15.6008 24.8718C15.9913 25.2623 16.6245 25.2623 17.015 24.8718C17.4055 24.4813 17.4055 23.8481 17.015 23.4576L15.6008 24.8718ZM12.0482 21.3123C12.4387 20.9218 12.4387 20.2886 12.0482 19.8981C11.6577 19.5076 11.0245 19.5076 10.634 19.8981L12.0482 21.3123ZM7.07451 23.4576C6.68399 23.8481 6.68399 24.4813 7.07452 24.8718C7.46504 25.2623 8.09821 25.2623 8.48873 24.8718L7.07451 23.4576ZM14.6869 16.1757L22.1848 20.5047L23.1848 18.7727L15.6869 14.4437L14.6869 16.1757ZM18.4788 17.5485L23.3411 16.2457L22.8235 14.3139L17.9612 15.6167L18.4788 17.5485ZM16.5504 18.0602L17.8533 22.9226L19.7851 22.405L18.4822 17.5426L16.5504 18.0602ZM12.755 9.6579V1H10.755V9.6579H12.755ZM12.0479 5.68763L8.48844 2.12816L7.07422 3.54238L10.6337 7.10185L12.0479 5.68763ZM13.4553 7.10184L17.0147 3.54237L15.6005 2.12817L12.0411 5.68764L13.4553 7.10184ZM15.3976 11.9783L22.8956 7.6494L21.8956 5.91734L14.3976 10.2463L15.3976 11.9783ZM18.4824 9.38085L19.7853 4.51852L17.8535 4.00086L16.5506 8.86319L18.4824 9.38085ZM17.9614 11.3068L22.8237 12.6096L23.3413 10.6778L18.479 9.37497L17.9614 11.3068ZM9.6849 10.2463L2.18694 5.91732L1.18694 7.64938L8.6849 11.9783L9.6849 10.2463ZM7.53194 8.86318L6.22909 4.00085L4.29723 4.51849L5.60008 9.38082L7.53194 8.86318ZM5.6035 9.37488L0.741173 10.6778L1.25883 12.6096L6.12116 11.3067L5.6035 9.37488ZM8.39567 14.4437L0.897706 18.7727L1.89771 20.5047L9.39567 16.1757L8.39567 14.4437ZM6.1214 15.6167L1.25908 14.3138L0.741423 16.2456L5.60374 17.5485L6.1214 15.6167ZM5.60033 17.5426L4.29747 22.405L6.22933 22.9226L7.53219 18.0602L5.60033 17.5426ZM11.3343 17.3421V26H13.3343V17.3421H11.3343ZM12.0414 21.3123L15.6008 24.8718L17.015 23.4576L13.4556 19.8981L12.0414 21.3123ZM10.634 19.8981L7.07451 23.4576L8.48873 24.8718L12.0482 21.3123L10.634 19.8981ZM14.5969 13.5C14.5969 14.9098 13.4541 16.0526 12.0443 16.0526V18.0526C14.5587 18.0526 16.5969 16.0143 16.5969 13.5H14.5969ZM12.0443 16.0526C10.6345 16.0526 9.49168 14.9098 9.49168 13.5H7.49168C7.49168 16.0143 9.52996 18.0526 12.0443 18.0526V16.0526ZM9.49168 13.5C9.49168 12.0902 10.6345 10.9474 12.0443 10.9474V8.94736C9.52996 8.94736 7.49168 10.9856 7.49168 13.5H9.49168ZM12.0443 10.9474C13.4541 10.9474 14.5969 12.0902 14.5969 13.5H16.5969C16.5969 10.9856 14.5587 8.94736 12.0443 8.94736V10.9474Z" fill="url(#paint0_linear)"/>
<defs>
<linearGradient id="paint0_linear" x1="12.0413" y1="1" x2="12.0413" y2="26" gradientUnits="userSpaceOnUse">
<stop stop-color="white"/>
<stop offset="0.494792" stop-color="#F9F9F9"/>
<stop offset="1" stop-color="#EBEBEB"/>
</linearGradient>
</defs>
</svg>
